<svg width="102" height="112" viewBox="0 0 102 112" fill="none" xmlns="http://www.w3.org/2000/svg">
<path fill-rule="evenodd" clip-rule="evenodd" d="M97.5717 29.3194C98.8943 30.5708 99.0284 32.7446 97.871 34.1747L53.3192 89.2279C52.7393 89.9446 51.9105 90.3693 51.0302 90.401C50.15 90.4327 49.2969 90.0685 48.6741 89.3951L29.5805 68.7502C28.3377 67.4064 28.3377 65.2278 29.5805 63.8841C30.8233 62.5404 32.8382 62.5404 34.0809 63.8841L50.7693 81.9284L93.0812 29.6431C94.2386 28.213 96.249 28.068 97.5717 29.3194Z" fill="#4CB437"/>
<path fill-rule="evenodd" clip-rule="evenodd" d="M10.487 63.884C11.7298 62.5403 13.7447 62.5403 14.9874 63.884L34.081 84.529C35.3238 85.8727 35.3238 88.0513 34.081 89.395C32.8383 90.7387 30.8234 90.7387 29.5806 89.395L10.487 68.7501C9.24424 67.4064 9.24424 65.2277 10.487 63.884Z" fill="#4CB437"/>
<path fill-rule="evenodd" clip-rule="evenodd" d="M78.4737 29.3153C79.7985 30.5641 79.9361 32.7376 78.7812 34.17L51.7319 67.718C50.577 69.1504 48.5668 69.2993 47.242 68.0505C45.9172 66.8018 45.7796 64.6283 46.9345 63.1958L73.9838 29.6478C75.1387 28.2154 77.1489 28.0665 78.4737 29.3153Z" fill="#4CB437"/>
</svg>
