<svg width="17" height="18" viewBox="0 0 17 18" fill="none" xmlns="http://www.w3.org/2000/svg">
<rect width="17" height="17" transform="translate(0 0.5)" fill="white"/>
<path fill-rule="evenodd" clip-rule="evenodd" d="M2.35391 0.50008L2.28809 0.50004C1.98935 0.499755 1.73183 0.49951 1.50369 0.554283C0.786467 0.726465 0.226465 1.28647 0.0542831 2.00369C-0.000490462 2.23183 -0.000244624 2.48935 4.04506e-05 2.78809L7.96564e-05 2.85391V5.99234L4.04506e-05 6.05816C-0.000244624 6.3569 -0.000490462 6.61443 0.0542831 6.84256C0.226465 7.55978 0.786467 8.11978 1.50369 8.29198C1.73183 8.34674 1.98935 8.3465 2.28809 8.34621L2.35391 8.34617H5.49234L5.55816 8.34621C5.8569 8.3465 6.11443 8.34674 6.34256 8.29198C7.05978 8.11978 7.61978 7.55978 7.79198 6.84256C7.84674 6.61443 7.8465 6.3569 7.84621 6.05816L7.84617 5.99234V2.85391L7.84621 2.78809C7.8465 2.48935 7.84674 2.23183 7.79198 2.00369C7.61978 1.28647 7.05978 0.726465 6.34256 0.554283C6.11443 0.49951 5.8569 0.499755 5.55816 0.50004L5.49234 0.50008H2.35391ZM1.80897 1.82583C1.86525 1.81231 1.95143 1.80776 2.35391 1.80776H5.49234C5.89483 1.80776 5.98101 1.81231 6.03728 1.82583C6.27636 1.88323 6.46302 2.06989 6.52043 2.30897C6.53394 2.36525 6.53849 2.45143 6.53849 2.85391V5.99234C6.53849 6.39483 6.53394 6.48101 6.52043 6.53728C6.46302 6.77636 6.27636 6.96302 6.03728 7.02043C5.98101 7.03394 5.89483 7.03849 5.49234 7.03849H2.35391C1.95143 7.03849 1.86525 7.03394 1.80897 7.02043C1.56989 6.96302 1.38323 6.77636 1.32583 6.53728C1.31231 6.48101 1.30776 6.39483 1.30776 5.99234V2.85391C1.30776 2.45143 1.31231 2.36525 1.32583 2.30897C1.38323 2.06989 1.56989 1.88323 1.80897 1.82583ZM11.5077 0.50008L11.4419 0.50004C11.1431 0.499755 10.8856 0.49951 10.6575 0.554283C9.94024 0.726465 9.38023 1.28647 9.20805 2.00369C9.15327 2.23183 9.15352 2.48935 9.15381 2.78809L9.15385 2.85391V5.99234L9.15381 6.05816C9.15352 6.3569 9.15327 6.61443 9.20805 6.84256C9.38023 7.55978 9.94024 8.11978 10.6575 8.29198C10.8856 8.34674 11.1431 8.3465 11.4419 8.34621L11.5077 8.34617H14.6461L14.7119 8.34621C15.0107 8.3465 15.2682 8.34674 15.4964 8.29198C16.2135 8.11978 16.7736 7.55978 16.9458 6.84256C17.0005 6.61443 17.0003 6.3569 16.9999 6.05816V5.99234V2.85391V2.78809C17.0003 2.48935 17.0005 2.23183 16.9458 2.00369C16.7736 1.28647 16.2135 0.726465 15.4964 0.554283C15.2682 0.49951 15.0107 0.499755 14.7119 0.50004L14.6461 0.50008H11.5077ZM10.9627 1.82583C11.019 1.81231 11.1052 1.80776 11.5077 1.80776H14.6461C15.0486 1.80776 15.1348 1.81231 15.191 1.82583C15.4301 1.88323 15.6168 2.06989 15.6742 2.30897C15.6877 2.36525 15.6923 2.45143 15.6923 2.85391V5.99234C15.6923 6.39483 15.6877 6.48101 15.6742 6.53728C15.6168 6.77636 15.4301 6.96302 15.191 7.02043C15.1348 7.03394 15.0486 7.03849 14.6461 7.03849H11.5077C11.1052 7.03849 11.019 7.03394 10.9627 7.02043C10.7237 6.96302 10.537 6.77636 10.4796 6.53728C10.4661 6.48101 10.4615 6.39483 10.4615 5.99234V2.85391C10.4615 2.45143 10.4661 2.36525 10.4796 2.30897C10.537 2.06989 10.7237 1.88323 10.9627 1.82583ZM2.28809 9.65381L2.35391 9.65385H5.49234L5.55816 9.65381C5.8569 9.65352 6.11443 9.65327 6.34256 9.70805C7.05978 9.88023 7.61978 10.4402 7.79198 11.1575C7.84674 11.3856 7.8465 11.6431 7.84621 11.9419L7.84617 12.0077V15.1461L7.84621 15.2119C7.8465 15.5107 7.84674 15.7682 7.79198 15.9964C7.61978 16.7135 7.05978 17.2736 6.34256 17.4458C6.11443 17.5005 5.8569 17.5003 5.55816 17.4999H5.49234H2.35391H2.28809C1.98935 17.5003 1.73183 17.5005 1.50369 17.4458C0.786467 17.2736 0.226465 16.7135 0.0542831 15.9964C-0.000490462 15.7682 -0.000244624 15.5107 4.04506e-05 15.2119L7.96564e-05 15.1461V12.0077L4.04506e-05 11.9419C-0.000244624 11.6431 -0.000490462 11.3856 0.0542831 11.1575C0.226465 10.4402 0.786467 9.88023 1.50369 9.70805C1.73183 9.65327 1.98935 9.65352 2.28809 9.65381ZM2.35391 10.9615C1.95143 10.9615 1.86525 10.9661 1.80897 10.9796C1.56989 11.037 1.38323 11.2237 1.32583 11.4627C1.31231 11.519 1.30776 11.6052 1.30776 12.0077V15.1461C1.30776 15.5486 1.31231 15.6348 1.32583 15.691C1.38323 15.9301 1.56989 16.1168 1.80897 16.1742C1.86525 16.1877 1.95143 16.1923 2.35391 16.1923H5.49234C5.89483 16.1923 5.98101 16.1877 6.03728 16.1742C6.27636 16.1168 6.46302 15.9301 6.52043 15.691C6.53394 15.6348 6.53849 15.5486 6.53849 15.1461V12.0077C6.53849 11.6052 6.53394 11.519 6.52043 11.4627C6.46302 11.2237 6.27636 11.037 6.03728 10.9796C5.98101 10.9661 5.89483 10.9615 5.49234 10.9615H2.35391ZM11.5077 9.65385L11.4419 9.65381C11.1431 9.65352 10.8856 9.65327 10.6575 9.70805C9.94024 9.88023 9.38023 10.4402 9.20805 11.1575C9.15327 11.3856 9.15352 11.6431 9.15381 11.9419L9.15385 12.0077V15.1461L9.15381 15.2119C9.15352 15.5107 9.15327 15.7682 9.20805 15.9964C9.38023 16.7135 9.94024 17.2736 10.6575 17.4458C10.8856 17.5005 11.1431 17.5003 11.4419 17.4999H11.5077H14.6461H14.7119C15.0107 17.5003 15.2682 17.5005 15.4964 17.4458C16.2135 17.2736 16.7736 16.7135 16.9458 15.9964C17.0005 15.7682 17.0003 15.5107 16.9999 15.2119V15.1461V12.0077V11.9419C17.0003 11.6431 17.0005 11.3856 16.9458 11.1575C16.7736 10.4402 16.2135 9.88023 15.4964 9.70805C15.2682 9.65327 15.0107 9.65352 14.7119 9.65381L14.6461 9.65385H11.5077ZM10.9627 10.9796C11.019 10.9661 11.1052 10.9615 11.5077 10.9615H14.6461C15.0486 10.9615 15.1348 10.9661 15.191 10.9796C15.4301 11.037 15.6168 11.2237 15.6742 11.4627C15.6877 11.519 15.6923 11.6052 15.6923 12.0077V15.1461C15.6923 15.5486 15.6877 15.6348 15.6742 15.691C15.6168 15.9301 15.4301 16.1168 15.191 16.1742C15.1348 16.1877 15.0486 16.1923 14.6461 16.1923H11.5077C11.1052 16.1923 11.019 16.1877 10.9627 16.1742C10.7237 16.1168 10.537 15.9301 10.4796 15.691C10.4661 15.6348 10.4615 15.5486 10.4615 15.1461V12.0077C10.4615 11.6052 10.4661 11.519 10.4796 11.4627C10.537 11.2237 10.7237 11.037 10.9627 10.9796Z" fill="#255B9B"/>
</svg>
