<svg width="25" height="25" viewBox="0 0 25 25" fill="none" xmlns="http://www.w3.org/2000/svg">
<path d="M15.8145 13.5C15.8145 13.3011 15.7354 13.1103 15.5948 12.9697C15.4541 12.829 15.2634 12.75 15.0645 12.75H9.06445C8.86554 12.75 8.67478 12.829 8.53412 12.9697C8.39347 13.1103 8.31445 13.3011 8.31445 13.5C8.31445 13.6989 8.39347 13.8897 8.53412 14.0303C8.67478 14.171 8.86554 14.25 9.06445 14.25H15.0645C15.2634 14.25 15.4541 14.171 15.5948 14.0303C15.7354 13.8897 15.8145 13.6989 15.8145 13.5ZM15.8145 17.5C15.8145 17.3011 15.7354 17.1103 15.5948 16.9697C15.4541 16.829 15.2634 16.75 15.0645 16.75H9.06445C8.86554 16.75 8.67478 16.829 8.53412 16.9697C8.39347 17.1103 8.31445 17.3011 8.31445 17.5C8.31445 17.6989 8.39347 17.8897 8.53412 18.0303C8.67478 18.171 8.86554 18.25 9.06445 18.25H15.0645C15.2634 18.25 15.4541 18.171 15.5948 18.0303C15.7354 17.8897 15.8145 17.6989 15.8145 17.5Z" fill="black"/>
<path fill-rule="evenodd" clip-rule="evenodd" d="M7.06445 2.75C6.33511 2.75 5.63563 3.03973 5.11991 3.55546C4.60418 4.07118 4.31445 4.77065 4.31445 5.5V19.5C4.31445 20.2293 4.60418 20.9288 5.11991 21.4445C5.63563 21.9603 6.33511 22.25 7.06445 22.25H17.0645C17.7938 22.25 18.4933 21.9603 19.009 21.4445C19.5247 20.9288 19.8145 20.2293 19.8145 19.5V8.468C19.8145 8.087 19.6905 7.717 19.4605 7.413L16.4625 3.445C16.2993 3.22912 16.0884 3.054 15.8461 2.93341C15.6039 2.81282 15.337 2.75004 15.0665 2.75H7.06445ZM5.81445 5.5C5.81445 4.81 6.37445 4.25 7.06445 4.25H14.3145V8.647C14.3145 9.061 14.6505 9.397 15.0645 9.397H18.3145V19.5C18.3145 20.19 17.7545 20.75 17.0645 20.75H7.06445C6.37445 20.75 5.81445 20.19 5.81445 19.5V5.5Z" fill="black"/>
</svg>
