<svg width="17" height="21" viewBox="0 0 17 21" fill="none" xmlns="http://www.w3.org/2000/svg">
<path fill-rule="evenodd" clip-rule="evenodd" d="M3.08021 5.28965L3.89221 18.9377C3.90444 19.1411 3.99382 19.3321 4.14211 19.4719C4.29041 19.6116 4.48644 19.6895 4.69021 19.6897H11.9222C12.126 19.6895 12.322 19.6116 12.4703 19.4719C12.6186 19.3321 12.708 19.1411 12.7202 18.9377L13.5322 5.28965H14.7352L13.9182 19.0087C13.8879 19.5175 13.6644 19.9956 13.2934 20.3452C12.9224 20.6948 12.432 20.8895 11.9222 20.8897H4.69021C4.18046 20.8895 3.68998 20.6948 3.319 20.3452C2.94802 19.9956 2.72454 19.5175 2.69421 19.0087L1.87721 5.28965H3.08021ZM5.80621 7.88965H7.00621L7.50621 16.8897H6.30621L5.80621 7.88965ZM9.60621 7.88965H10.8062L10.3062 16.8897H9.10621L9.60621 7.88965ZM0.765209 1.24265L16.5222 4.02065C16.587 4.032 16.6489 4.05602 16.7044 4.09133C16.7599 4.12664 16.8078 4.17254 16.8455 4.22642C16.8833 4.2803 16.91 4.34108 16.9242 4.4053C16.9383 4.46952 16.9397 4.5359 16.9282 4.60065L16.8062 5.28965L0.064209 2.33765L0.186209 1.64765C0.209374 1.51721 0.283359 1.4013 0.391918 1.32536C0.500477 1.24943 0.634735 1.21968 0.765209 1.24265ZM7.05521 0.117652L10.9952 0.812652C11.06 0.824001 11.1219 0.848018 11.1774 0.883327C11.2329 0.918635 11.2808 0.964543 11.3185 1.01842C11.3563 1.0723 11.383 1.13308 11.3972 1.1973C11.4113 1.26152 11.4127 1.3279 11.4012 1.39265L11.2792 2.08165L6.35521 1.21265L6.47721 0.523652C6.48856 0.458974 6.51255 0.397166 6.54779 0.341757C6.58303 0.286349 6.62885 0.238426 6.68261 0.200724C6.73638 0.163023 6.79705 0.136282 6.86115 0.122028C6.92525 0.107774 6.99153 0.106287 7.05621 0.117652H7.05521Z" fill="#D80027"/>
</svg>
