<svg width="17" height="21" viewBox="0 0 17 21" fill="none" xmlns="http://www.w3.org/2000/svg">
<path fill-rule="evenodd" clip-rule="evenodd" d="M3.56421 0.75C2.83486 0.75 2.13539 1.03973 1.61967 1.55546C1.10394 2.07118 0.814209 2.77065 0.814209 3.5V17.5C0.814209 18.2293 1.10394 18.9288 1.61967 19.4445C2.13539 19.9603 2.83486 20.25 3.56421 20.25H13.5642C14.2936 20.25 14.993 19.9603 15.5088 19.4445C16.0245 18.9288 16.3142 18.2293 16.3142 17.5V6.468C16.3142 6.087 16.1902 5.717 15.9602 5.413L12.9622 1.445C12.7991 1.22912 12.5881 1.054 12.3459 0.933408C12.1037 0.812817 11.8368 0.750036 11.5662 0.75H3.56421ZM2.31421 3.5C2.31421 2.81 2.87421 2.25 3.56421 2.25H10.8142V6.647C10.8142 7.061 11.1502 7.397 11.5642 7.397H14.8142V17.5C14.8142 18.19 14.2542 18.75 13.5642 18.75H3.56421C2.87421 18.75 2.31421 18.19 2.31421 17.5V3.5Z" fill="black"/>
</svg>
