<svg width="24" height="24" viewBox="0 0 24 24" fill="none" xmlns="http://www.w3.org/2000/svg">
<path d="M12.186 14.5527C11.569 14.5527 11.209 15.1397 11.209 15.9257C11.209 16.7167 11.58 17.2757 12.192 17.2757C12.809 17.2757 13.163 16.6877 13.163 15.9017C13.163 15.1757 12.815 14.5527 12.186 14.5527Z" fill="#255B9B"/>
<path d="M14 2H6C5.46957 2 4.96086 2.21071 4.58579 2.58579C4.21071 2.96086 4 3.46957 4 4V20C4 20.5304 4.21071 21.0391 4.58579 21.4142C4.96086 21.7893 5.46957 22 6 22H18C18.5304 22 19.0391 21.7893 19.4142 21.4142C19.7893 21.0391 20 20.5304 20 20V8L14 2ZM9.155 17.454C8.729 17.808 8.082 17.975 7.291 17.975C6.816 17.975 6.481 17.945 6.253 17.915V13.944C6.66191 13.8845 7.07481 13.8567 7.488 13.861C8.256 13.861 8.754 13.999 9.143 14.293C9.563 14.605 9.827 15.103 9.827 15.815C9.827 16.59 9.545 17.124 9.155 17.454ZM12.145 18C10.945 18 10.244 17.094 10.244 15.942C10.244 14.731 11.017 13.826 12.211 13.826C13.452 13.826 14.13 14.755 14.13 15.871C14.129 17.196 13.325 18 12.145 18ZM16.8 17.238C17.075 17.238 17.381 17.177 17.562 17.106L17.7 17.819C17.532 17.903 17.154 17.993 16.663 17.993C15.266 17.993 14.546 17.124 14.546 15.972C14.546 14.593 15.529 13.826 16.753 13.826C17.227 13.826 17.586 13.922 17.748 14.006L17.562 14.732C17.3184 14.6319 17.0574 14.5809 16.794 14.582C16.068 14.582 15.504 15.02 15.504 15.92C15.504 16.729 15.984 17.238 16.8 17.238ZM14 9H13V4L18 9H14Z" fill="#255B9B"/>
<path d="M7.5839 14.5625C7.3809 14.5625 7.2489 14.5805 7.1709 14.5985V17.2435C7.2489 17.2615 7.3749 17.2615 7.4879 17.2615C8.3159 17.2675 8.8549 16.8125 8.8549 15.8465C8.8609 15.0065 8.3699 14.5625 7.5839 14.5625Z" fill="#255B9B"/>
</svg>
