<svg width="25" height="25" viewBox="0 0 25 25" fill="none" xmlns="http://www.w3.org/2000/svg">
<path d="M7.06421 17.5129L11.4772 17.4979L21.1092 7.9579C21.4872 7.5799 21.6952 7.0779 21.6952 6.5439C21.6952 6.0099 21.4872 5.5079 21.1092 5.1299L19.5232 3.5439C18.7672 2.7879 17.4482 2.7919 16.6982 3.5409L7.06421 13.0829V17.5129ZM18.1092 4.9579L19.6982 6.5409L18.1012 8.1229L16.5152 6.5379L18.1092 4.9579ZM9.06421 13.9169L15.0942 7.9439L16.6802 9.5299L10.6512 15.5009L9.06421 15.5059V13.9169Z" fill="black"/>
<path d="M5.06421 21.5H19.0642C20.1672 21.5 21.0642 20.603 21.0642 19.5V10.832L19.0642 12.832V19.5H8.22221C8.19621 19.5 8.16921 19.51 8.14321 19.51C8.11021 19.51 8.07721 19.501 8.04321 19.5H5.06421V5.5H11.9112L13.9112 3.5H5.06421C3.96121 3.5 3.06421 4.397 3.06421 5.5V19.5C3.06421 20.603 3.96121 21.5 5.06421 21.5Z" fill="black"/>
</svg>
