<svg width="29" height="30" viewBox="0 0 29 30" fill="none" xmlns="http://www.w3.org/2000/svg">
<path fill-rule="evenodd" clip-rule="evenodd" d="M13.8667 5.2915H3.33333C1.49167 5.2915 0 6.87317 0 8.8215V26.4682C0 28.4182 1.49167 29.9982 3.33333 29.9982H21.6667C23.5083 29.9982 25 28.4182 25 26.4682V13.5515L18.4767 20.4582C17.907 21.0673 17.1651 21.4883 16.35 21.6648L11.8817 22.6115C8.965 23.2282 6.395 20.5065 6.97833 17.4198L7.87167 12.6882C8.03333 11.8348 8.43 11.0498 9.01167 10.4348L13.8667 5.2915Z" fill="black"/>
<path fill-rule="evenodd" clip-rule="evenodd" d="M28.0768 2.19507C27.9083 1.76845 27.6613 1.37724 27.3485 1.04174C27.0409 0.713618 26.6702 0.451129 26.2585 0.27007C25.8529 0.0919641 25.4148 0 24.9718 0C24.5289 0 24.0907 0.0919641 23.6852 0.27007C23.2735 0.451129 22.9027 0.713618 22.5951 1.04174L21.6852 2.00507L26.4385 7.0384L27.3485 6.0734C27.6646 5.74045 27.912 5.34856 28.0768 4.92007C28.4202 4.04418 28.4202 3.07096 28.0768 2.19507ZM24.0835 9.5334L19.3285 4.4984L11.3668 12.9317C11.2494 13.0569 11.1701 13.213 11.1385 13.3817L10.2452 18.1151C10.1285 18.7317 10.6435 19.2751 11.2252 19.1517L15.6952 18.2067C15.8578 18.1705 16.0058 18.0863 16.1202 17.9651L24.0835 9.5334Z" fill="black"/>
</svg>
