<svg width="79" height="55" viewBox="0 0 79 55" fill="none" xmlns="http://www.w3.org/2000/svg">
<path d="M67.5482 27.5H11.7418C8.78169 27.5 5.94277 28.6194 3.84963 30.612C1.75648 32.6046 0.580566 35.3071 0.580566 38.125V43.4375C0.580566 44.142 0.874546 44.8176 1.39783 45.3158C1.92112 45.8139 2.63085 46.0938 3.37089 46.0938H6.16121V48.75C6.16121 50.159 6.74916 51.5102 7.79574 52.5065C8.84231 53.5028 10.2618 54.0625 11.7418 54.0625C13.2219 54.0625 14.6414 53.5028 15.688 52.5065C16.7345 51.5102 17.3225 50.159 17.3225 48.75V46.0938H61.9676V48.75C61.9676 50.159 62.5556 51.5102 63.6021 52.5065C64.6487 53.5028 66.0682 54.0625 67.5482 54.0625C69.0283 54.0625 70.4478 53.5028 71.4943 52.5065C72.5409 51.5102 73.1289 50.159 73.1289 48.75V46.0938H75.9192C76.6592 46.0938 77.369 45.8139 77.8923 45.3158C78.4155 44.8176 78.7095 44.142 78.7095 43.4375V38.125C78.7095 35.3071 77.5336 32.6046 75.4404 30.612C73.3473 28.6194 70.5084 27.5 67.5482 27.5ZM20.1128 11.5625H34.0644C34.8044 11.5625 35.5142 11.8424 36.0375 12.3405C36.5607 12.8386 36.8547 13.5143 36.8547 14.2188C36.8547 14.9232 36.5607 15.5989 36.0375 16.097C35.5142 16.5951 34.8044 16.875 34.0644 16.875H20.1128C19.3728 16.875 18.663 16.5951 18.1397 16.097C17.6165 15.5989 17.3225 14.9232 17.3225 14.2188C17.3225 13.5143 17.6165 12.8386 18.1397 12.3405C18.663 11.8424 19.3728 11.5625 20.1128 11.5625ZM45.2257 11.5625H59.1773C59.9173 11.5625 60.627 11.8424 61.1503 12.3405C61.6736 12.8386 61.9676 13.5143 61.9676 14.2188C61.9676 14.9232 61.6736 15.5989 61.1503 16.097C60.627 16.5951 59.9173 16.875 59.1773 16.875H45.2257C44.4856 16.875 43.7759 16.5951 43.2526 16.097C42.7293 15.5989 42.4354 14.9232 42.4354 14.2188C42.4354 13.5143 42.7293 12.8386 43.2526 12.3405C43.7759 11.8424 44.4856 11.5625 45.2257 11.5625ZM14.5573 22.1875H64.7328C66.2898 22.1875 67.5482 20.9895 67.5482 19.5073V6.25C67.5482 4.84104 66.9603 3.48978 65.9137 2.49349C64.8671 1.49721 63.4477 0.9375 61.9676 0.9375H17.3225C15.8424 0.9375 14.4229 1.49721 13.3764 2.49349C12.3298 3.48978 11.7418 4.84104 11.7418 6.25V19.5073C11.7418 20.9895 13.0003 22.1875 14.5573 22.1875Z" fill="black"/>
</svg>
