<svg width="18" height="18" viewBox="0 0 18 18" fill="none" xmlns="http://www.w3.org/2000/svg">
<path d="M12.6 8.99925C12.6 9.19822 12.5052 9.38904 12.3364 9.52974C12.1676 9.67043 11.9387 9.74948 11.7 9.74948C11.4613 9.74948 11.2324 9.67043 11.0636 9.52974C10.8948 9.38904 10.8 9.19822 10.8 8.99925C10.8 8.80028 10.8948 8.60946 11.0636 8.46876C11.2324 8.32807 11.4613 8.24902 11.7 8.24902C11.9387 8.24902 12.1676 8.32807 12.3364 8.46876C12.5052 8.60946 12.6 8.80028 12.6 8.99925ZM8.2764 0.0145514C8.14588 -0.00719514 8.0112 -0.00453862 7.88206 0.0223293C7.75292 0.0491972 7.63253 0.0996078 7.52958 0.169929C7.42662 0.24025 7.34366 0.328731 7.28667 0.428998C7.22968 0.529265 7.20008 0.638821 7.2 0.749772V17.2502C7.20008 17.3612 7.22968 17.4707 7.28667 17.571C7.34366 17.6713 7.42662 17.7597 7.52958 17.8301C7.63253 17.9004 7.75292 17.9508 7.88206 17.9777C8.0112 18.0045 8.14588 18.0072 8.2764 17.9854L17.2764 16.485C17.4803 16.451 17.6639 16.3592 17.7958 16.2252C17.9277 16.0911 17.9999 15.9231 18 15.7498V2.25022C17.9999 2.07685 17.9277 1.90887 17.7958 1.77483C17.6639 1.6408 17.4803 1.54898 17.2764 1.515L8.2764 0.0145514ZM9 16.335V1.66505L16.2 2.86541V15.1346L9 16.335ZM5.4 16.5V14.9996H1.8V3.00045H5.4V1.5H0.9C0.661305 1.5 0.432387 1.57904 0.263604 1.71973C0.0948213 1.86043 0 2.05125 0 2.25022V15.7498C0 15.9487 0.0948213 16.1396 0.263604 16.2803C0.432387 16.421 0.661305 16.5 0.9 16.5H5.4Z" fill="#255B9B"/>
</svg>
