<svg width="18" height="18" viewBox="0 0 18 18" fill="none" xmlns="http://www.w3.org/2000/svg">
<path d="M0 0H18V18H0V0Z" fill="white" fill-opacity="0.01"/>
<path d="M1.50012 5.24975L1.16471 4.57892C0.910622 4.70597 0.750122 4.96569 0.750122 5.24975H1.50012ZM9.00012 1.49976L9.33552 0.828936C9.1244 0.723362 8.87585 0.723362 8.66472 0.828936L9.00012 1.49976ZM16.5001 5.24975H17.2501C17.2501 4.96569 17.0896 4.70597 16.8355 4.57892L16.5001 5.24975ZM16.5001 12.7498L16.8355 13.4206C17.0896 13.2935 17.2501 13.0338 17.2501 12.7498H16.5001ZM9.00012 16.4998L8.66472 17.1706C8.87585 17.2762 9.1244 17.2762 9.33552 17.1706L9.00012 16.4998ZM1.50012 12.7498H0.750122C0.750122 13.0338 0.910622 13.2935 1.16471 13.4206L1.50012 12.7498ZM1.83553 5.92059L9.33552 2.17057L8.66472 0.828936L1.16471 4.57892L1.83553 5.92059ZM15.7501 5.24975V12.7498H17.2501V5.24975H15.7501ZM16.1647 12.0789L8.66472 15.8289L9.33552 17.1706L16.8355 13.4206L16.1647 12.0789ZM9.33552 15.8289L1.83553 12.0789L1.16471 13.4206L8.66472 17.1706L9.33552 15.8289ZM2.25012 12.7498V5.24975H0.750122V12.7498H2.25012ZM16.8355 4.57892L9.33552 0.828936L8.66472 2.17057L16.1647 5.92059L16.8355 4.57892Z" fill="#255B9B"/>
<path d="M1.49988 5.24976L8.99988 8.99976" stroke="#255B9B" stroke-linecap="round" stroke-linejoin="round"/>
<path d="M9 16.5V9" stroke="#255B9B" stroke-linecap="round" stroke-linejoin="round"/>
<path d="M16.5 5.24976L9 8.99976" stroke="#255B9B" stroke-linecap="round" stroke-linejoin="round"/>
<path d="M13.0856 4.04624C13.4561 3.86099 13.6062 3.41048 13.421 3.04C13.2358 2.66951 12.7852 2.51935 12.4148 2.70459L13.0856 4.04624ZM4.91477 6.45457C4.54427 6.63982 4.39412 7.09034 4.57933 7.46081C4.76458 7.83131 5.2151 7.98146 5.58557 7.79625L4.91477 6.45457ZM12.4148 2.70459L4.91477 6.45457L5.58557 7.79625L13.0856 4.04624L12.4148 2.70459Z" fill="#255B9B"/>
</svg>
