<svg width="18" height="18" viewBox="0 0 18 18" fill="none" xmlns="http://www.w3.org/2000/svg">
<path d="M9 17.25C4.83225 16.3237 1.5 12.3915 1.5 8.25V3.75L9 0.75L16.5 3.75V8.25C16.5 12.393 13.1678 16.3237 9 17.25ZM3 4.5V8.25C3.04286 9.9841 3.65277 11.6564 4.73638 13.0109C5.82 14.3654 7.31761 15.3275 9 15.75C10.6824 15.3275 12.18 14.3654 13.2636 13.0109C14.3472 11.6564 14.9571 9.9841 15 8.25V4.5L9 2.25L3 4.5Z" fill="#255B9B"/>
<path d="M9 8.25C10.0355 8.25 10.875 7.41053 10.875 6.375C10.875 5.33947 10.0355 4.5 9 4.5C7.96447 4.5 7.125 5.33947 7.125 6.375C7.125 7.41053 7.96447 8.25 9 8.25Z" fill="#255B9B"/>
<path d="M5.25 11.25C5.61955 11.9238 6.16155 12.4872 6.82048 12.8825C7.47942 13.2779 8.23161 13.491 9 13.5C9.76839 13.491 10.5206 13.2779 11.1795 12.8825C11.8385 12.4872 12.3805 11.9238 12.75 11.25C12.7312 9.828 10.2435 9 9 9C7.74975 9 5.26875 9.828 5.25 11.25Z" fill="#255B9B"/>
</svg>
