<svg width="18" height="19" viewBox="0 0 18 19" fill="none" xmlns="http://www.w3.org/2000/svg">
<path d="M15.6364 1.5H3.36364C3.00198 1.5 2.65513 1.62157 2.3994 1.83795C2.14367 2.05434 2 2.34783 2 2.65385V15.3462C2 15.6522 2.14367 15.9457 2.3994 16.162C2.65513 16.3784 3.00198 16.5 3.36364 16.5H15.6364C15.998 16.5 16.3449 16.3784 16.6006 16.162C16.8563 15.9457 17 15.6522 17 15.3462V2.65385C17 2.34783 16.8563 2.05434 16.6006 1.83795C16.3449 1.62157 15.998 1.5 15.6364 1.5Z" stroke="#255B9B" stroke-linecap="round" stroke-linejoin="round"/>
<path d="M13.535 11.3071H12.3882C11.3859 11.3071 10.3973 11.1098 9.5 10.7302C8.60387 10.3493 7.61463 10.1517 6.61182 10.1532H5.46636M2 4.96094H17M13.5909 10.7302C13.5909 11.1847 13.4851 11.6349 13.2795 12.0548C13.0739 12.4748 12.7726 12.8564 12.3927 13.1778C12.0128 13.4993 11.5619 13.7543 11.0655 13.9282C10.5692 14.1022 10.0372 14.1917 9.5 14.1917C8.96277 14.1917 8.43081 14.1022 7.93448 13.9282C7.43814 13.7543 6.98717 13.4993 6.60729 13.1778C6.22741 12.8564 5.92608 12.4748 5.72049 12.0548C5.51491 11.6349 5.40909 11.1847 5.40909 10.7302C5.40909 9.81211 5.8401 8.93166 6.60729 8.28249C7.37448 7.63333 8.41502 7.26863 9.5 7.26863C10.585 7.26863 11.6255 7.63333 12.3927 8.28249C13.1599 8.93166 13.5909 9.81211 13.5909 10.7302Z" stroke="#255B9B" stroke-linecap="round" stroke-linejoin="round"/>
</svg>
