<svg width="22" height="22" viewBox="0 0 22 22" fill="none" xmlns="http://www.w3.org/2000/svg">
<path d="M20 10.9999C20.0028 12.7866 19.4714 14.5334 18.474 16.0159C17.6514 17.2429 16.5391 18.2483 15.2356 18.9432C13.932 19.638 12.4772 20.001 11 19.9999C9.52277 20.001 8.06804 19.638 6.76444 18.9432C5.46085 18.2483 4.34858 17.2429 3.526 16.0159C2.74273 14.8483 2.2439 13.5134 2.06951 12.1183C1.89511 10.7232 2.05 9.30662 2.52175 7.98215C2.9935 6.65768 3.769 5.46216 4.78607 4.49142C5.80314 3.52068 7.0335 2.80173 8.37851 2.39221C9.72352 1.98268 11.1458 1.89396 12.5312 2.13317C13.9167 2.37238 15.2269 2.93286 16.3567 3.76969C17.4865 4.60651 18.4046 5.69639 19.0373 6.95197C19.67 8.20755 19.9997 9.59389 20 10.9999Z" stroke="#255B9B" stroke-width="2.5"/>
<path d="M11.7504 8C11.7504 8.19891 11.6714 8.38968 11.5308 8.53033C11.3901 8.67098 11.1994 8.75 11.0004 8.75V11.25C11.8624 11.25 12.689 10.9076 13.2985 10.2981C13.908 9.6886 14.2504 8.86195 14.2504 8H11.7504ZM11.0004 8.75C10.8015 8.75 10.6108 8.67098 10.4701 8.53033C10.3295 8.38968 10.2504 8.19891 10.2504 8H7.75044C7.75044 8.86195 8.09285 9.6886 8.70234 10.2981C9.31183 10.9076 10.1385 11.25 11.0004 11.25V8.75ZM10.2504 8C10.2504 7.80109 10.3295 7.61032 10.4701 7.46967C10.6108 7.32902 10.8015 7.25 11.0004 7.25V4.75C10.1385 4.75 9.31183 5.09241 8.70234 5.7019C8.09285 6.3114 7.75044 7.13805 7.75044 8H10.2504ZM11.0004 7.25C11.1994 7.25 11.3901 7.32902 11.5308 7.46967C11.6714 7.61032 11.7504 7.80109 11.7504 8H14.2504C14.2504 7.13805 13.908 6.3114 13.2985 5.7019C12.689 5.09241 11.8624 4.75 11.0004 4.75V7.25ZM4.16644 16.856L2.96844 16.5L2.77344 17.153L3.21744 17.67L4.16644 16.856ZM17.8344 16.856L18.7834 17.67L19.2274 17.153L19.0324 16.5L17.8344 16.856ZM8.00044 15.25H14.0004V12.75H8.00044V15.25ZM8.00044 12.75C6.8697 12.7498 5.76912 13.1147 4.86246 13.7904C3.95579 14.4661 3.29151 15.4164 2.96844 16.5L5.36444 17.213C5.5339 16.6456 5.88199 16.1481 6.35693 15.7944C6.83186 15.4407 7.40828 15.2498 8.00044 15.25V12.75ZM11.0004 18.75C9.88208 18.7514 8.77673 18.51 7.7607 18.0427C6.74468 17.5753 5.84216 16.8931 5.11544 16.043L3.21744 17.67C4.17884 18.7939 5.3725 19.6959 6.71614 20.3139C8.05979 20.932 9.52147 21.2513 11.0004 21.25V18.75ZM14.0004 15.25C15.2444 15.25 16.2984 16.077 16.6364 17.213L19.0324 16.5C18.7094 15.4164 18.0451 14.4661 17.1384 13.7904C16.2318 13.1147 15.1312 12.7498 14.0004 12.75V15.25ZM16.8854 16.043C16.1587 16.8931 15.2562 17.5753 14.2402 18.0427C13.2241 18.51 12.1188 18.7514 11.0004 18.75V21.25C12.4794 21.2513 13.9411 20.932 15.2847 20.3139C16.6284 19.6959 17.822 18.7939 18.7834 17.67L16.8854 16.043Z" fill="#255B9B"/>
</svg>
