<svg width="18" height="19" viewBox="0 0 18 19" fill="none" xmlns="http://www.w3.org/2000/svg">
<g clip-path="url(#clip0_145_6347)">
<path d="M12.3125 13.6429C12.1633 13.6429 12.0202 13.7106 11.9148 13.8311C11.8093 13.9517 11.75 14.1152 11.75 14.2857C11.75 14.4562 11.8093 14.6197 11.9148 14.7403C12.0202 14.8608 12.1633 14.9286 12.3125 14.9286H14.1875C14.3367 14.9286 14.4798 14.8608 14.5852 14.7403C14.6907 14.6197 14.75 14.4562 14.75 14.2857C14.75 14.1152 14.6907 13.9517 14.5852 13.8311C14.4798 13.7106 14.3367 13.6429 14.1875 13.6429H12.3125ZM2 8.28571C2 7.5469 2.25681 6.83834 2.71393 6.31592C3.17105 5.79349 3.79103 5.5 4.4375 5.5H14.5625C14.8826 5.5 15.1996 5.57205 15.4953 5.71205C15.791 5.85205 16.0597 6.05724 16.2861 6.31592C16.5124 6.57459 16.692 6.88169 16.8145 7.21967C16.937 7.55765 17 7.91989 17 8.28571V14.7143C17 15.0801 16.937 15.4424 16.8145 15.7803C16.692 16.1183 16.5124 16.4254 16.2861 16.6841C16.0597 16.9428 15.791 17.148 15.4953 17.288C15.1996 17.4279 14.8826 17.5 14.5625 17.5H4.4375C3.79103 17.5 3.17105 17.2065 2.71393 16.6841C2.25681 16.1617 2 15.4531 2 14.7143V8.28571ZM15.875 9.35714V8.28571C15.875 7.88789 15.7367 7.50636 15.4906 7.22505C15.2444 6.94375 14.9106 6.78571 14.5625 6.78571H4.4375C4.0894 6.78571 3.75556 6.94375 3.50942 7.22505C3.26328 7.50636 3.125 7.88789 3.125 8.28571V9.35714H15.875ZM3.125 10.6429V14.7143C3.125 15.5423 3.713 16.2143 4.4375 16.2143H14.5625C14.9106 16.2143 15.2444 16.0562 15.4906 15.7749C15.7367 15.4936 15.875 15.1121 15.875 14.7143V10.6429H3.125Z" fill="#255B9B"/>
</g>
<defs>
<clipPath id="clip0_145_6347">
<rect width="18" height="18" fill="white" transform="translate(0 0.5)"/>
</clipPath>
</defs>
</svg>
