<svg width="19" height="16" viewBox="0 0 19 16" fill="none" xmlns="http://www.w3.org/2000/svg">
<path d="M13.1667 15.3333L12.9167 14.0833C12.7501 14.0138 12.594 13.941 12.4484 13.8649C12.3029 13.7888 12.1534 13.6949 12.0001 13.5833L10.7917 13.9583L9.95841 12.5416L10.9167 11.7083C10.889 11.5416 10.8751 11.361 10.8751 11.1666C10.8751 10.9721 10.889 10.7916 10.9167 10.6249L9.95841 9.79158L10.7917 8.37492L12.0001 8.74992C12.1529 8.63881 12.3023 8.5452 12.4484 8.46908C12.5945 8.39297 12.7506 8.31992 12.9167 8.24992L13.1667 6.99992H14.8334L15.0834 8.24992C15.2501 8.31936 15.4065 8.39242 15.5526 8.46908C15.6987 8.54575 15.8479 8.63936 16.0001 8.74992L17.2084 8.37492L18.0417 9.79158L17.0834 10.6249C17.1112 10.7916 17.1251 10.9721 17.1251 11.1666C17.1251 11.361 17.1112 11.5416 17.0834 11.7083L18.0417 12.5416L17.2084 13.9583L16.0001 13.5833C15.8473 13.6944 15.6981 13.7883 15.5526 13.8649C15.407 13.9416 15.2506 14.0144 15.0834 14.0833L14.8334 15.3333H13.1667ZM14.0001 12.8333C14.4584 12.8333 14.8509 12.6702 15.1776 12.3441C15.5042 12.018 15.6673 11.6255 15.6667 11.1666C15.6662 10.7077 15.5031 10.3155 15.1776 9.98992C14.852 9.66436 14.4595 9.50103 14.0001 9.49992C13.5406 9.49881 13.1484 9.66214 12.8234 9.98992C12.4984 10.3177 12.3351 10.7099 12.3334 11.1666C12.3317 11.6233 12.4951 12.0158 12.8234 12.3441C13.1517 12.6724 13.544 12.8355 14.0001 12.8333ZM2.33341 11.9999V1.99992V5.58325V5.33325V11.9999ZM2.33341 13.6666C1.87508 13.6666 1.48286 13.5035 1.15675 13.1774C0.830637 12.8513 0.667304 12.4588 0.666748 11.9999V1.99992C0.666748 1.54159 0.830081 1.14936 1.15675 0.823252C1.48341 0.497141 1.87564 0.333808 2.33341 0.333252H7.33341L9.00008 1.99992H15.6667C16.1251 1.99992 16.5176 2.16325 16.8442 2.48992C17.1709 2.81659 17.334 3.20881 17.3334 3.66659V6.39575C17.0834 6.2152 16.8195 6.05909 16.5417 5.92742C16.264 5.79575 15.9723 5.68103 15.6667 5.58325V3.66659H8.31258L6.64591 1.99992H2.33341V11.9999H8.22925C8.27091 12.2916 8.33703 12.5763 8.42758 12.8541C8.51814 13.1319 8.62564 13.4027 8.75008 13.6666H2.33341Z" fill="white"/>
</svg>
