<svg width="19" height="18" viewBox="0 0 19 18" fill="none" xmlns="http://www.w3.org/2000/svg">
<path d="M16.15 0.5H7.65C6.9737 0.5 6.3251 0.76866 5.84688 1.24688C5.36866 1.7251 5.1 2.3737 5.1 3.05V9C5.1 9.6763 5.36866 10.3249 5.84688 10.8031C6.3251 11.2813 6.9737 11.55 7.65 11.55H16.15C16.8263 11.55 17.4749 11.2813 17.9531 10.8031C18.4313 10.3249 18.7 9.6763 18.7 9V3.05C18.7 2.3737 18.4313 1.7251 17.9531 1.24688C17.4749 0.76866 16.8263 0.5 16.15 0.5ZM17 9C17 9.22543 16.9104 9.44164 16.751 9.60104C16.5916 9.76045 16.3754 9.85 16.15 9.85H7.65C7.42457 9.85 7.20836 9.76045 7.04896 9.60104C6.88955 9.44164 6.8 9.22543 6.8 9V3.05C6.8 2.82457 6.88955 2.60837 7.04896 2.44896C7.20836 2.28955 7.42457 2.2 7.65 2.2H16.15C16.3754 2.2 16.5916 2.28955 16.751 2.44896C16.9104 2.60837 17 2.82457 17 3.05V9ZM14.025 5.6C13.7103 5.60107 13.4073 5.71924 13.175 5.9315C12.9922 5.76537 12.7651 5.6559 12.5213 5.61641C12.2775 5.57691 12.0274 5.60908 11.8016 5.70902C11.5757 5.80895 11.3837 5.97234 11.2489 6.17933C11.1142 6.38632 11.0424 6.628 11.0424 6.875C11.0424 7.122 11.1142 7.36368 11.2489 7.57067C11.3837 7.77766 11.5757 7.94105 11.8016 8.04098C12.0274 8.14092 12.2775 8.17309 12.5213 8.13359C12.7651 8.0941 12.9922 7.98463 13.175 7.8185C13.3285 7.95801 13.5137 8.05796 13.7146 8.10969C13.9154 8.16142 14.1259 8.16336 14.3277 8.11535C14.5295 8.06733 14.7165 7.97081 14.8726 7.83416C15.0286 7.6975 15.1489 7.52484 15.2232 7.33115C15.2974 7.13746 15.3232 6.92858 15.2984 6.72265C15.2736 6.51671 15.199 6.31993 15.0809 6.14937C14.9629 5.97882 14.805 5.83963 14.621 5.7439C14.437 5.64817 14.2324 5.59877 14.025 5.6ZM12.75 13.25C12.5246 13.25 12.3084 13.3396 12.149 13.499C11.9896 13.6584 11.9 13.8746 11.9 14.1V14.95C11.9 15.1754 11.8104 15.3916 11.651 15.551C11.4916 15.7104 11.2754 15.8 11.05 15.8H2.55C2.32457 15.8 2.10837 15.7104 1.94896 15.551C1.78955 15.3916 1.7 15.1754 1.7 14.95V11.55H2.55C2.77543 11.55 2.99163 11.4604 3.15104 11.301C3.31045 11.1416 3.4 10.9254 3.4 10.7C3.4 10.4746 3.31045 10.2584 3.15104 10.099C2.99163 9.93955 2.77543 9.85 2.55 9.85H1.7V9C1.7 8.77457 1.78955 8.55837 1.94896 8.39896C2.10837 8.23955 2.32457 8.15 2.55 8.15C2.77543 8.15 2.99163 8.06045 3.15104 7.90104C3.31045 7.74163 3.4 7.52543 3.4 7.3C3.4 7.07457 3.31045 6.85837 3.15104 6.69896C2.99163 6.53955 2.77543 6.45 2.55 6.45C1.8737 6.45 1.2251 6.71866 0.746878 7.19688C0.26866 7.6751 0 8.3237 0 9V14.95C0 15.6263 0.26866 16.2749 0.746878 16.7531C1.2251 17.2313 1.8737 17.5 2.55 17.5H11.05C11.7263 17.5 12.3749 17.2313 12.8531 16.7531C13.3313 16.2749 13.6 15.6263 13.6 14.95V14.1C13.6 13.8746 13.5104 13.6584 13.351 13.499C13.1916 13.3396 12.9754 13.25 12.75 13.25ZM4.25 14.1H5.1C5.32543 14.1 5.54163 14.0104 5.70104 13.851C5.86045 13.6916 5.95 13.4754 5.95 13.25C5.95 13.0246 5.86045 12.8084 5.70104 12.649C5.54163 12.4896 5.32543 12.4 5.1 12.4H4.25C4.02457 12.4 3.80837 12.4896 3.64896 12.649C3.48955 12.8084 3.4 13.0246 3.4 13.25C3.4 13.4754 3.48955 13.6916 3.64896 13.851C3.80837 14.0104 4.02457 14.1 4.25 14.1Z" fill="#255B9B"/>
</svg>
