<svg width="20" height="20" viewBox="0 0 20 20" fill="none" xmlns="http://www.w3.org/2000/svg">
<path d="M9.99967 10.416C9.22613 10.416 8.48426 10.7233 7.93728 11.2703C7.3903 11.8173 7.08301 12.5591 7.08301 13.3327C7.08301 14.1062 7.3903 14.8481 7.93728 15.3951C8.48426 15.9421 9.22613 16.2493 9.99967 16.2493C10.7732 16.2493 11.5151 15.9421 12.0621 15.3951C12.6091 14.8481 12.9163 14.1062 12.9163 13.3327C12.9163 12.5591 12.6091 11.8173 12.0621 11.2703C11.5151 10.7233 10.7732 10.416 9.99967 10.416ZM8.74967 13.3327C8.74967 13.0012 8.88137 12.6832 9.11579 12.4488C9.35021 12.2144 9.66815 12.0827 9.99967 12.0827C10.3312 12.0827 10.6491 12.2144 10.8836 12.4488C11.118 12.6832 11.2497 13.0012 11.2497 13.3327C11.2497 13.6642 11.118 13.9821 10.8836 14.2166C10.6491 14.451 10.3312 14.5827 9.99967 14.5827C9.66815 14.5827 9.35021 14.451 9.11579 14.2166C8.88137 13.9821 8.74967 13.6642 8.74967 13.3327Z" fill="#255B9B"/>
<path d="M14.605 4.263L11.9558 0.548828L2.215 8.33049L1.675 8.32466V8.33299H1.25V18.333H18.75V8.33299H17.9483L16.3533 3.66716L14.605 4.263ZM16.1875 8.33299H7.83083L14.055 6.21133L15.3233 5.80549L16.1875 8.33299ZM12.9583 4.82466L6.53333 7.01466L11.6217 2.94966L12.9583 4.82466ZM2.91667 15.1405V11.5238C3.26848 11.3997 3.58804 11.1983 3.85192 10.9346C4.1158 10.6709 4.31731 10.3514 4.44167 9.99966H15.5583C15.6826 10.3516 15.884 10.6712 16.1479 10.9351C16.4118 11.1989 16.7314 11.4004 17.0833 11.5247V15.1413C16.7314 15.2656 16.4118 15.467 16.1479 15.7309C15.884 15.9948 15.6826 16.3144 15.5583 16.6663H4.44333C4.31849 16.3144 4.11664 15.9948 3.85252 15.7308C3.5884 15.4668 3.26867 15.2651 2.91667 15.1405Z" fill="#255B9B"/>
</svg>
